<svg width="26" height="26" viewBox="0 0 26 26" fill="none" xmlns="http://www.w3.org/2000/svg">
<mask id="mask0_709_870" style="mask-type:alpha" maskUnits="userSpaceOnUse" x="0" y="0" width="26" height="26">
<rect width="26" height="26" fill="#D9D9D9"/>
</mask>
<g mask="url(#mask0_709_870)">
<path d="M6.527 18.7417C7.44784 18.0556 8.44992 17.5139 9.53325 17.1167C10.6166 16.7195 11.7721 16.5208 12.9999 16.5208C14.2277 16.5208 15.3833 16.7195 16.4666 17.1167C17.5499 17.5139 18.552 18.0556 19.4728 18.7417C20.1409 18.0014 20.6735 17.1438 21.0708 16.1688C21.468 15.1938 21.6666 14.1375 21.6666 13C21.6666 10.5986 20.8227 8.55365 19.1348 6.86509C17.4463 5.17726 15.4013 4.33334 12.9999 4.33334C10.5985 4.33334 8.55392 5.17726 6.86609 6.86509C5.17753 8.55365 4.33325 10.5986 4.33325 13C4.33325 14.1375 4.53186 15.1938 4.92909 16.1688C5.32631 17.1438 5.85895 18.0014 6.527 18.7417ZM12.9999 13.8125C12.0069 13.8125 11.172 13.4738 10.4953 12.7963C9.81781 12.1196 9.47909 11.2847 9.47909 10.2917C9.47909 9.29862 9.81781 8.46373 10.4953 7.78701C11.172 7.10957 12.0069 6.77084 12.9999 6.77084C13.993 6.77084 14.8279 7.10957 15.5046 7.78701C16.182 8.46373 16.5208 9.29862 16.5208 10.2917C16.5208 11.2847 16.182 12.1196 15.5046 12.7963C14.8279 13.4738 13.993 13.8125 12.9999 13.8125ZM12.9999 23.2917C11.5735 23.2917 10.2331 23.0208 8.97859 22.4792C7.72336 21.9375 6.63534 21.2063 5.7145 20.2854C4.79367 19.3646 4.06242 18.2766 3.52075 17.0213C2.97909 15.7668 2.70825 14.4264 2.70825 13C2.70825 11.5736 2.97909 10.2328 3.52075 8.97759C4.06242 7.72309 4.79367 6.63543 5.7145 5.71459C6.63534 4.79376 7.72336 4.06251 8.97859 3.52084C10.2331 2.97918 11.5735 2.70834 12.9999 2.70834C14.4263 2.70834 15.7671 2.97918 17.0223 3.52084C18.2768 4.06251 19.3645 4.79376 20.2853 5.71459C21.2062 6.63543 21.9374 7.72309 22.4791 8.97759C23.0208 10.2328 23.2916 11.5736 23.2916 13C23.2916 14.4264 23.0208 15.7668 22.4791 17.0213C21.9374 18.2766 21.2062 19.3646 20.2853 20.2854C19.3645 21.2063 18.2768 21.9375 17.0223 22.4792C15.7671 23.0208 14.4263 23.2917 12.9999 23.2917ZM12.9999 21.6667C13.9749 21.6667 14.9185 21.5085 15.8307 21.1922C16.7421 20.8766 17.5499 20.4389 18.2541 19.8792C17.5499 19.3375 16.7508 18.9132 15.8567 18.6063C14.9633 18.2993 14.011 18.1458 12.9999 18.1458C11.9888 18.1458 11.0366 18.295 10.1432 18.5933C9.24906 18.8908 8.44992 19.3195 7.74575 19.8792C8.44992 20.4389 9.25772 20.8766 10.1692 21.1922C11.0813 21.5085 12.0249 21.6667 12.9999 21.6667ZM12.9999 12.1875C13.5416 12.1875 13.993 12.007 14.3541 11.6458C14.7152 11.2847 14.8958 10.8333 14.8958 10.2917C14.8958 9.75001 14.7152 9.29862 14.3541 8.93751C13.993 8.5764 13.5416 8.39584 12.9999 8.39584C12.4583 8.39584 12.0069 8.5764 11.6458 8.93751C11.2846 9.29862 11.1041 9.75001 11.1041 10.2917C11.1041 10.8333 11.2846 11.2847 11.6458 11.6458C12.0069 12.007 12.4583 12.1875 12.9999 12.1875Z" fill="#1C1B1F"/>
</g>
</svg>
