<svg width="26" height="26" viewBox="0 0 26 26" fill="none" xmlns="http://www.w3.org/2000/svg">
<mask id="mask0_709_876" style="mask-type:alpha" maskUnits="userSpaceOnUse" x="0" y="0" width="26" height="26">
<rect width="26" height="26" fill="#D9D9D9"/>
</mask>
<g mask="url(#mask0_709_876)">
<path d="M5.74175 23.2917C5.20008 23.2917 4.73966 23.1021 4.3605 22.7229C3.98133 22.3437 3.79175 21.8833 3.79175 21.3417V8.99166C3.79175 8.44999 3.98133 7.98957 4.3605 7.61041C4.73966 7.23124 5.20008 7.04166 5.74175 7.04166H8.12508C8.12508 5.68749 8.59886 4.53627 9.54641 3.58799C10.4947 2.64043 11.6459 2.16666 13.0001 2.16666C14.3542 2.16666 15.5055 2.64043 16.4537 3.58799C17.4013 4.53627 17.8751 5.68749 17.8751 7.04166H20.2584C20.8001 7.04166 21.2605 7.23124 21.6397 7.61041C22.0188 7.98957 22.2084 8.44999 22.2084 8.99166V21.3417C22.2084 21.8833 22.0188 22.3437 21.6397 22.7229C21.2605 23.1021 20.8001 23.2917 20.2584 23.2917H5.74175ZM5.74175 21.6667H20.2584C20.3306 21.6667 20.4029 21.6305 20.4751 21.5583C20.5473 21.4861 20.5834 21.4139 20.5834 21.3417V8.99166C20.5834 8.91943 20.5473 8.84721 20.4751 8.77499C20.4029 8.70277 20.3306 8.66666 20.2584 8.66666H5.74175C5.66953 8.66666 5.5973 8.70277 5.52508 8.77499C5.45286 8.84721 5.41675 8.91943 5.41675 8.99166V21.3417C5.41675 21.4139 5.45286 21.4861 5.52508 21.5583C5.5973 21.6305 5.66953 21.6667 5.74175 21.6667ZM13.0001 14.625C14.3542 14.625 15.5055 14.1512 16.4537 13.2037C17.4013 12.2554 17.8751 11.1042 17.8751 9.74999H16.2501C16.2501 10.6528 15.9341 11.4201 15.3022 12.0521C14.6702 12.684 13.9029 13 13.0001 13C12.0973 13 11.3299 12.684 10.698 12.0521C10.0661 11.4201 9.75008 10.6528 9.75008 9.74999H8.12508C8.12508 11.1042 8.59886 12.2554 9.54641 13.2037C10.4947 14.1512 11.6459 14.625 13.0001 14.625ZM9.75008 7.04166H16.2501C16.2501 6.13888 15.9341 5.37152 15.3022 4.73957C14.6702 4.10763 13.9029 3.79166 13.0001 3.79166C12.0973 3.79166 11.3299 4.10763 10.698 4.73957C10.0661 5.37152 9.75008 6.13888 9.75008 7.04166Z" fill="#1C1B1F"/>
</g>
</svg>
