<svg width="24" height="24" viewBox="0 0 24 24" fill="none" xmlns="http://www.w3.org/2000/svg">
<mask id="mask0_43_1013" style="mask-type:alpha" maskUnits="userSpaceOnUse" x="0" y="0" width="24" height="24">
<rect width="24" height="24" fill="#D9D9D9"/>
</mask>
<g mask="url(#mask0_43_1013)">
<path d="M2.57495 18.6248V17.1248H12.275V18.6248H2.57495ZM2.57495 13.7498V12.2498H7.27495V13.7498H2.57495ZM2.57495 8.8748V7.3748H7.27495V8.8748H2.57495ZM20.375 18.6498L16.55 14.8248C16.1666 15.1081 15.754 15.3205 15.312 15.4618C14.8706 15.6038 14.4166 15.6748 13.95 15.6748C12.7 15.6748 11.6376 15.2371 10.763 14.3618C9.88762 13.4871 9.44995 12.4248 9.44995 11.1748C9.44995 9.9248 9.88762 8.86214 10.763 7.9868C11.6376 7.11214 12.7 6.6748 13.95 6.6748C15.2 6.6748 16.2623 7.11214 17.137 7.9868C18.0123 8.86214 18.45 9.9248 18.45 11.1748C18.45 11.6415 18.375 12.0955 18.225 12.5368C18.075 12.9788 17.8666 13.3915 17.6 13.7748L21.4249 17.5998L20.375 18.6498ZM13.95 14.1748C14.7833 14.1748 15.4916 13.8831 16.075 13.2998C16.6583 12.7165 16.95 12.0081 16.95 11.1748C16.95 10.3415 16.6583 9.63314 16.075 9.0498C15.4916 8.46647 14.7833 8.1748 13.95 8.1748C13.1166 8.1748 12.4083 8.46647 11.825 9.0498C11.2416 9.63314 10.95 10.3415 10.95 11.1748C10.95 12.0081 11.2416 12.7165 11.825 13.2998C12.4083 13.8831 13.1166 14.1748 13.95 14.1748Z" fill="#1C1B1F"/>
</g>
</svg>
