<svg width="24" height="24" viewBox="0 0 24 24" fill="none" xmlns="http://www.w3.org/2000/svg">
<mask id="mask0_21_410" style="mask-type:alpha" maskUnits="userSpaceOnUse" x="0" y="0" width="24" height="24">
<rect width="24" height="24" fill="#D9D9D9"/>
</mask>
<g mask="url(#mask0_21_410)">
<path d="M12 20.325L10.9 19.325C9.23333 17.825 7.85833 16.5333 6.775 15.45C5.69167 14.3667 4.83333 13.404 4.2 12.562C3.56667 11.7207 3.125 10.954 2.875 10.262C2.625 9.57067 2.5 8.86667 2.5 8.15C2.5 6.73333 2.97933 5.54567 3.938 4.587C4.896 3.629 6.08333 3.15 7.5 3.15C8.36667 3.15 9.19167 3.354 9.975 3.762C10.7583 4.17067 11.4333 4.75833 12 5.525C12.5667 4.75833 13.2417 4.17067 14.025 3.762C14.8083 3.354 15.6333 3.15 16.5 3.15C17.9167 3.15 19.104 3.629 20.062 4.587C21.0207 5.54567 21.5 6.73333 21.5 8.15C21.5 8.86667 21.375 9.57067 21.125 10.262C20.875 10.954 20.4333 11.7207 19.8 12.562C19.1667 13.404 18.3083 14.3667 17.225 15.45C16.1417 16.5333 14.7667 17.825 13.1 19.325L12 20.325Z" fill="#1C1B1F"/>
</g>
</svg>
