<svg width="18" height="17" viewBox="0 0 18 17" fill="none" xmlns="http://www.w3.org/2000/svg">
<path d="M14.3904 16.4133H3.63033C2.14345 16.4133 0.928711 15.1985 0.928711 13.7116V2.95162C0.928711 1.46473 2.14345 0.25 3.63033 0.25H14.3904C15.8772 0.25 17.092 1.46473 17.092 2.95162V13.7116C17.092 15.2052 15.8839 16.4133 14.3904 16.4133Z" fill="#666666"/>
<path d="M9.01343 12.4836C7.9049 12.4836 6.86275 12.0522 6.07948 11.2689C5.29621 10.4856 4.86475 9.44349 4.86475 8.33496C4.86475 7.22643 5.29621 6.18428 6.07948 5.40101C6.86275 4.61774 7.9049 4.18628 9.01343 4.18628C10.122 4.18628 11.1641 4.61774 11.9474 5.40101C12.7306 6.18428 13.1621 7.22643 13.1621 8.33496C13.1621 9.44349 12.7306 10.4856 11.9474 11.2689C11.1575 12.0522 10.122 12.4836 9.01343 12.4836ZM9.01343 5.06912C7.21456 5.06912 5.74758 6.52945 5.74758 8.33496C5.74758 10.1338 7.20792 11.6008 9.01343 11.6008C10.8123 11.6008 12.2793 10.1405 12.2793 8.33496C12.2726 6.53609 10.8123 5.06912 9.01343 5.06912Z" fill="white"/>
<path d="M13.9709 4.0498C14.4108 4.0498 14.7675 3.69316 14.7675 3.25323C14.7675 2.8133 14.4108 2.45667 13.9709 2.45667C13.531 2.45667 13.1743 2.8133 13.1743 3.25323C13.1743 3.69316 13.531 4.0498 13.9709 4.0498Z" fill="white"/>
</svg>
