<svg width="26" height="26" viewBox="0 0 26 26" fill="none" xmlns="http://www.w3.org/2000/svg">
<mask id="mask0_709_864" style="mask-type:alpha" maskUnits="userSpaceOnUse" x="0" y="0" width="26" height="26">
<rect width="26" height="26" fill="#D9D9D9"/>
</mask>
<g mask="url(#mask0_709_864)">
<path d="M21.1792 22.2896L14.3542 15.4917C13.8125 15.9431 13.1896 16.2951 12.4854 16.5479C11.7813 16.8007 11.059 16.9271 10.3188 16.9271C8.45904 16.9271 6.88821 16.2861 5.60627 15.0042C4.32432 13.7222 3.68335 12.1514 3.68335 10.2917C3.68335 8.45 4.32432 6.8835 5.60627 5.59217C6.88821 4.30156 8.45904 3.65625 10.3188 3.65625C12.1604 3.65625 13.7222 4.29722 15.0042 5.57917C16.2861 6.86111 16.9271 8.43194 16.9271 10.2917C16.9271 11.0681 16.8007 11.8083 16.5479 12.5125C16.2952 13.2167 15.9521 13.8306 15.5188 14.3542L22.3167 21.1521L21.1792 22.2896ZM10.3188 15.3021C11.709 15.3021 12.8874 14.8146 13.8537 13.8396C14.8193 12.8646 15.3021 11.6819 15.3021 10.2917C15.3021 8.90139 14.8193 7.71875 13.8537 6.74375C12.8874 5.76875 11.709 5.28125 10.3188 5.28125C8.91043 5.28125 7.72346 5.76875 6.75785 6.74375C5.79152 7.71875 5.30835 8.90139 5.30835 10.2917C5.30835 11.6819 5.79152 12.8646 6.75785 13.8396C7.72346 14.8146 8.91043 15.3021 10.3188 15.3021Z" fill="#1C1B1F"/>
</g>
</svg>
