<svg width="26" height="26" viewBox="0 0 26 26" fill="none" xmlns="http://www.w3.org/2000/svg">
<mask id="mask0_709_844" style="mask-type:alpha" maskUnits="userSpaceOnUse" x="0" y="0" width="26" height="26">
<rect x="26" width="26" height="26" transform="rotate(90 26 0)" fill="#D9D9D9"/>
</mask>
<g mask="url(#mask0_709_844)">
<path d="M3.19592 15.0583C2.88897 14.7514 2.7355 14.3679 2.7355 13.9078C2.7355 13.4471 2.88897 13.0632 3.19592 12.7563L12.7292 3.22293C12.8917 3.06043 13.0723 2.93404 13.2709 2.84376C13.4695 2.75348 13.6862 2.70834 13.9209 2.70834L21.6667 2.70834C22.1181 2.70834 22.5016 2.86651 22.8172 3.18284C23.1336 3.49845 23.2917 3.88195 23.2917 4.33334V12.0792C23.2917 12.2958 23.2466 12.5082 23.1563 12.7162C23.0661 12.9235 22.9487 13.0993 22.8042 13.2438L13.2709 22.7771C12.9459 23.1021 12.5534 23.2646 12.0933 23.2646C11.6326 23.2646 11.2487 23.1111 10.9417 22.8042L3.19592 15.0583ZM4.33342 13.8938L12.0792 21.6396L21.6667 12.0792V4.33334H13.9209L4.33342 13.8938ZM17.6042 7.04168C17.6042 7.42084 17.7353 7.74151 17.9975 8.00368C18.2589 8.26512 18.5792 8.39584 18.9584 8.39584C19.3376 8.39584 19.6582 8.26512 19.9204 8.00368C20.1819 7.74151 20.3126 7.42084 20.3126 7.04168C20.3126 6.66251 20.1819 6.3422 19.9204 6.08076C19.6582 5.81859 19.3376 5.68751 18.9584 5.68751C18.5792 5.68751 18.2589 5.81859 17.9975 6.08076C17.7353 6.3422 17.6042 6.66251 17.6042 7.04168Z" fill="#1C1B1F"/>
</g>
</svg>
