<svg width="24" height="24" viewBox="0 0 24 24" fill="none" xmlns="http://www.w3.org/2000/svg">
<mask id="mask0_665_1211" style="mask-type:alpha" maskUnits="userSpaceOnUse" x="0" y="0" width="24" height="24">
<rect x="24" width="24" height="24" transform="rotate(90 24 0)" fill="#D9D9D9"/>
</mask>
<g mask="url(#mask0_665_1211)">
<path d="M2.95 13.9C2.66667 13.6167 2.525 13.2627 2.525 12.838C2.525 12.4127 2.66667 12.0583 2.95 11.775L11.75 2.975C11.9 2.825 12.0667 2.70833 12.25 2.625C12.4333 2.54167 12.6333 2.5 12.85 2.5L20 2.5C20.4167 2.5 20.7707 2.646 21.062 2.938C21.354 3.22933 21.5 3.58333 21.5 4V11.15C21.5 11.35 21.4583 11.546 21.375 11.738C21.2917 11.9293 21.1833 12.0917 21.05 12.225L12.25 21.025C11.95 21.325 11.5877 21.475 11.163 21.475C10.7377 21.475 10.3833 21.3333 10.1 21.05L2.95 13.9ZM4 12.825L11.15 19.975L20 11.15V4L12.85 4L4 12.825ZM16.25 6.5C16.25 6.85 16.371 7.146 16.613 7.388C16.8543 7.62933 17.15 7.75 17.5 7.75C17.85 7.75 18.146 7.62933 18.388 7.388C18.6293 7.146 18.75 6.85 18.75 6.5C18.75 6.15 18.6293 5.85433 18.388 5.613C18.146 5.371 17.85 5.25 17.5 5.25C17.15 5.25 16.8543 5.371 16.613 5.613C16.371 5.85433 16.25 6.15 16.25 6.5Z" fill="#1C1B1F"/>
</g>
</svg>
