<svg width="49" height="48" viewBox="0 0 49 48" fill="none" xmlns="http://www.w3.org/2000/svg">
<g clip-path="url(#clip0_235_694)">
<path d="M24.2246 4.32187C30.6371 4.32187 31.3965 4.35 33.9184 4.4625C36.2621 4.56562 37.5277 4.95938 38.3715 5.2875C39.4871 5.71875 40.2934 6.24375 41.1277 7.07812C41.9715 7.92188 42.4871 8.71875 42.9184 9.83438C43.2465 10.6781 43.6402 11.9531 43.7434 14.2875C43.8559 16.8187 43.884 17.5781 43.884 23.9813C43.884 30.3938 43.8559 31.1531 43.7434 33.675C43.6402 36.0188 43.2465 37.2844 42.9184 38.1281C42.4871 39.2438 41.9621 40.05 41.1277 40.8844C40.284 41.7281 39.4871 42.2438 38.3715 42.675C37.5277 43.0031 36.2527 43.3969 33.9184 43.5C31.3871 43.6125 30.6277 43.6406 24.2246 43.6406C17.8121 43.6406 17.0527 43.6125 14.5309 43.5C12.1871 43.3969 10.9215 43.0031 10.0777 42.675C8.96211 42.2438 8.15586 41.7188 7.32149 40.8844C6.47774 40.0406 5.96211 39.2438 5.53086 38.1281C5.20273 37.2844 4.80899 36.0094 4.70586 33.675C4.59336 31.1438 4.56524 30.3844 4.56524 23.9813C4.56524 17.5688 4.59336 16.8094 4.70586 14.2875C4.80899 11.9437 5.20273 10.6781 5.53086 9.83438C5.96211 8.71875 6.48711 7.9125 7.32149 7.07812C8.16524 6.23438 8.96211 5.71875 10.0777 5.2875C10.9215 4.95938 12.1965 4.56562 14.5309 4.4625C17.0527 4.35 17.8121 4.32187 24.2246 4.32187ZM24.2246 0C17.709 0 16.8934 0.028125 14.334 0.140625C11.784 0.253125 10.0309 0.665625 8.51211 1.25625C6.92774 1.875 5.58711 2.69062 4.25586 4.03125C2.91524 5.3625 2.09961 6.70313 1.48086 8.27813C0.890234 9.80625 0.477734 11.55 0.365234 14.1C0.252734 16.6687 0.224609 17.4844 0.224609 24C0.224609 30.5156 0.252734 31.3312 0.365234 33.8906C0.477734 36.4406 0.890234 38.1938 1.48086 39.7125C2.09961 41.2969 2.91524 42.6375 4.25586 43.9688C5.58711 45.3 6.92774 46.125 8.50274 46.7344C10.0309 47.325 11.7746 47.7375 14.3246 47.85C16.884 47.9625 17.6996 47.9906 24.2152 47.9906C30.7309 47.9906 31.5465 47.9625 34.1059 47.85C36.6559 47.7375 38.409 47.325 39.9277 46.7344C41.5027 46.125 42.8434 45.3 44.1746 43.9688C45.5059 42.6375 46.3309 41.2969 46.9402 39.7219C47.5309 38.1938 47.9434 36.45 48.0559 33.9C48.1684 31.3406 48.1965 30.525 48.1965 24.0094C48.1965 17.4938 48.1684 16.6781 48.0559 14.1188C47.9434 11.5688 47.5309 9.81563 46.9402 8.29688C46.3496 6.70312 45.534 5.3625 44.1934 4.03125C42.8621 2.7 41.5215 1.875 39.9465 1.26562C38.4184 0.675 36.6746 0.2625 34.1246 0.15C31.5559 0.028125 30.7402 0 24.2246 0Z" fill="#333333"/>
<path d="M24.2246 11.6719C17.4184 11.6719 11.8965 17.1938 11.8965 24C11.8965 30.8062 17.4184 36.3281 24.2246 36.3281C31.0309 36.3281 36.5527 30.8062 36.5527 24C36.5527 17.1938 31.0309 11.6719 24.2246 11.6719ZM24.2246 31.9969C19.809 31.9969 16.2277 28.4156 16.2277 24C16.2277 19.5844 19.809 16.0031 24.2246 16.0031C28.6402 16.0031 32.2215 19.5844 32.2215 24C32.2215 28.4156 28.6402 31.9969 24.2246 31.9969Z" fill="#333333"/>
<path d="M39.9184 11.1843C39.9184 12.778 38.6246 14.0624 37.0402 14.0624C35.4465 14.0624 34.1621 12.7687 34.1621 11.1843C34.1621 9.59053 35.4559 8.30615 37.0402 8.30615C38.6246 8.30615 39.9184 9.5999 39.9184 11.1843Z" fill="#333333"/>
</g>
<defs>
<clipPath id="clip0_235_694">
<rect width="48" height="48" fill="white" transform="translate(0.224609)"/>
</clipPath>
</defs>
</svg>
