<svg width="18" height="17" viewBox="0 0 18 17" fill="none" xmlns="http://www.w3.org/2000/svg">
<path d="M14.3904 16.4133H3.63033C2.14345 16.4133 0.928711 15.1985 0.928711 13.7116V2.95162C0.928711 1.46473 2.14345 0.25 3.63033 0.25H14.3904C15.8772 0.25 17.092 1.46473 17.092 2.95162V13.7116C17.092 15.2052 15.8839 16.4133 14.3904 16.4133Z" fill="#666666"/>
<path d="M9.01343 12.4834C7.9049 12.4834 6.86275 12.0519 6.07948 11.2687C5.29621 10.4854 4.86475 9.44324 4.86475 8.33472C4.86475 7.22619 5.29621 6.18404 6.07948 5.40077C6.86275 4.6175 7.9049 4.18604 9.01343 4.18604C10.122 4.18604 11.1641 4.6175 11.9474 5.40077C12.7306 6.18404 13.1621 7.22619 13.1621 8.33472C13.1621 9.44324 12.7306 10.4854 11.9474 11.2687C11.1575 12.0519 10.122 12.4834 9.01343 12.4834ZM9.01343 5.06887C7.21456 5.06887 5.74758 6.52921 5.74758 8.33472C5.74758 10.1336 7.20792 11.6006 9.01343 11.6006C10.8123 11.6006 12.2793 10.1402 12.2793 8.33472C12.2726 6.53585 10.8123 5.06887 9.01343 5.06887Z" fill="white"/>
<path d="M13.9709 4.04968C14.4108 4.04968 14.7675 3.69304 14.7675 3.25311C14.7675 2.81318 14.4108 2.45654 13.9709 2.45654C13.531 2.45654 13.1743 2.81318 13.1743 3.25311C13.1743 3.69304 13.531 4.04968 13.9709 4.04968Z" fill="white"/>
</svg>
