<svg width="30" height="30" viewBox="0 0 30 30" fill="none" xmlns="http://www.w3.org/2000/svg">
<mask id="mask0_250_981" style="mask-type:alpha" maskUnits="userSpaceOnUse" x="0" y="0" width="30" height="30">
<rect x="30" width="30" height="30" transform="rotate(90 30 0)" fill="#D9D9D9"/>
</mask>
<g mask="url(#mask0_250_981)">
<path d="M3.6875 17.375C3.33333 17.0208 3.15625 16.5783 3.15625 16.0475C3.15625 15.5158 3.33333 15.0729 3.6875 14.7188L14.6875 3.71875C14.875 3.53125 15.0833 3.38542 15.3125 3.28125C15.5417 3.17708 15.7917 3.125 16.0625 3.125L25 3.125C25.5208 3.125 25.9633 3.3075 26.3275 3.6725C26.6925 4.03667 26.875 4.47917 26.875 5V13.9375C26.875 14.1875 26.8229 14.4325 26.7188 14.6725C26.6146 14.9117 26.4792 15.1146 26.3125 15.2812L15.3125 26.2812C14.9375 26.6562 14.4846 26.8438 13.9538 26.8438C13.4221 26.8438 12.9792 26.6667 12.625 26.3125L3.6875 17.375ZM5 16.0312L13.9375 24.9688L25 13.9375V5H16.0625L5 16.0312ZM20.3125 8.125C20.3125 8.5625 20.4637 8.9325 20.7662 9.235C21.0679 9.53667 21.4375 9.6875 21.875 9.6875C22.3125 9.6875 22.6825 9.53667 22.985 9.235C23.2867 8.9325 23.4375 8.5625 23.4375 8.125C23.4375 7.6875 23.2867 7.31792 22.985 7.01625C22.6825 6.71375 22.3125 6.5625 21.875 6.5625C21.4375 6.5625 21.0679 6.71375 20.7662 7.01625C20.4637 7.31792 20.3125 7.6875 20.3125 8.125Z" fill="#1C1B1F"/>
</g>
</svg>
